HIERARCHY
ROOT Hips
{
    OFFSET 0.0 0.0 0.0
    CHANNELS 6 Xposition Yposition Zposition Zrotation Xrotation Yrotation
    JOINT Spine
    {
        OFFSET 0.0 5.0 0.0
        CHANNELS 3 Zrotation Xrotation Yrotation
        JOINT Chest
        {
            OFFSET 0.0 5.0 0.0
            CHANNELS 3 Zrotation Xrotation Yrotation
            JOINT Neck
            {
                OFFSET 0.0 8.0 0.0
                CHANNELS 3 Zrotation Xrotation Yrotation
                JOINT Head
                {
                    OFFSET 0.0 5.0 0.0
                    CHANNELS 3 Zrotation Xrotation Yrotation
                    End Site
                    {
                        OFFSET 0.0 3.0 0.0
                    }
                }
            }
            JOINT LeftShoulder
            {
                OFFSET -5.0 0.0 0.0
                CHANNELS 3 Zrotation Xrotation Yrotation
                JOINT LeftArm
                {
                    OFFSET 0.0 -10.0 0.0
                    CHANNELS 3 Zrotation Xrotation Yrotation
                    JOINT LeftForeArm
                    {
                        OFFSET 0.0 -10.0 0.0
                        CHANNELS 3 Zrotation Xrotation Yrotation
                        End Site
                        {
                            OFFSET 0.0 -3.0 0.0
                        }
                    }
                }
            }
        }
    }
}

MOTION
Frames: 40
Frame Time: 0.033333
960.000000 445.000000 82.426803 0.000000 0.000000 0.000000 0.000000 0.000000 0.000000 23.025492 -10.159346 0.000000 180.000000 -10.556960 0.000000 21.801409 11.504254 -0.000000 158.198591 0.808300 30.000000 15.945396 1.430855 0.000000 18.000000 -0.279733 0.000000
1691.525230 140.756605 113.390307 0.000000 0.000000 0.000000 0.000000 0.000000 0.000000 -163.376529 5.394493 4.973798 16.623471 -13.179963 4.973798 -171.853121 -2.880337 3.759997 99.744051 -16.010211 29.763441 -171.126653 -3.611956 -3.759997 0.673538 0.354003 0.313953
1636.048050 128.802021 103.942559 0.000000 0.000000 0.000000 0.000000 0.000000 0.000000 157.904128 -4.363421 9.635073 -22.095872 -2.316115 9.635073 -171.936471 -3.766352 7.460697 -143.675701 -1.729298 29.057495 -173.500805 -4.006784 -7.460697 0.570999 0.396062 0.626666
1578.156967 80.474526 100.355073 0.000000 0.000000 0.000000 0.000000 0.000000 0.000000 -139.519796 -5.224387 13.690942 40.480204 8.636432 13.690942 -174.507724 -4.347277 11.043737 119.111399 1.739249 27.893295 -173.607258 -4.237928 -11.043737 0.461920 0.491352 0.936907
960.418757 444.998421 130.589250 0.000000 0.000000 0.000000 0.000000 0.000000 0.000000 25.077893 -24.231468 16.886559 180.000000 -1.813874 16.886559 23.861935 -3.313177 14.452610 156.138065 -5.471492 26.289200 17.903699 -1.442348 -14.452610 18.000000 0.531254 1.243449
960.523360 444.997533 119.112772 0.000000 0.000000 0.000000 0.000000 0.000000 0.000000 25.638906 -36.946514 19.021130 180.000000 10.369893 19.021130 24.425035 7.204764 17.633558 155.574965 -0.201398 24.270510 18.452907 4.398400 -17.633558 18.000000 -0.129513 1.545085
960.627905 444.996447 113.312015 0.000000 0.000000 0.000000 0.000000 0.000000 0.000000 26.219073 -12.892213 19.960535 180.000000 4.769659 19.960535 25.006291 -13.037794 20.536413 154.993709 -6.256842 21.869059 19.024920 2.543496 -20.536413 18.000000 -0.071865 1.840623
1126.242828 420.359820 122.160870 0.000000 0.000000 0.000000 0.000000 0.000000 0.000000 31.410514 -3.331228 19.645745 -148.589486 -1.595089 19.645745 32.280463 0.361270 23.115397 -131.603972 1.827288 19.122720 45.585331 0.639203 -23.115397 -13.449727 -0.018161 2.128896
1257.895088 650.549197 132.040777 0.000000 0.000000 0.000000 0.000000 0.000000 0.000000 25.073180 -12.533338 18.096541 -154.926820 -4.631883 18.096541 46.260945 11.308393 25.329838 -154.651428 -5.375116 16.074804 27.339487 5.051573 -25.329838 -13.619892 -0.067203 2.408768
960.941083 444.992008 138.470218 0.000000 0.000000 0.000000 0.000000 0.000000 0.000000 28.072001 28.967183 15.410265 180.000000 -19.157968 15.410265 26.849221 3.013160 27.144812 153.150779 -5.461923 12.773379 20.864045 -7.914191 -27.144812 18.000000 0.398784 2.679134
1163.815842 547.748709 138.374822 0.000000 0.000000 0.000000 0.000000 0.000000 0.000000 117.162728 -5.517102 11.755705 -62.837272 3.901625 11.755705 102.363764 -6.339771 28.531695 -47.376450 -2.343823 9.270510 104.768601 -2.573726 -28.531695 -6.003489 0.114103 2.938926
961.149372 444.988063 143.148150 0.000000 0.000000 0.000000 0.000000 0.000000 0.000000 29.395983 16.759593 7.362491 180.000000 0.267830 7.362491 28.146217 -1.050537 29.468618 151.853783 7.827647 5.621439 22.170006 -13.262551 -29.468618 18.000000 0.793548 3.187120
1136.717377 590.104480 172.584503 0.000000 0.000000 0.000000 0.000000 0.000000 0.000000 115.752126 -0.548883 2.506665 -64.247874 6.400280 2.506665 73.638146 -2.519914 29.940802 -21.842452 0.610746 1.883716 75.369282 0.363686 -29.940802 -6.767207 0.700561 3.422736
1163.079758 634.077559 143.078158 0.000000 0.000000 0.000000 0.000000 0.000000 0.000000 132.174340 -3.794839 -2.506665 -47.825660 7.837516 -2.506665 94.255711 0.441077 29.940802 -149.364979 -6.645300 -1.883716 30.021641 5.473125 -29.940802 -5.096180 1.374946 3.644843
961.460830 444.980668 154.994881 0.000000 0.000000 0.000000 0.000000 0.000000 0.000000 31.497152 -1.635613 -7.362491 180.000000 5.949504 -7.362491 30.152455 3.021440 29.468618 149.847545 5.884075 -5.621439 24.175589 -5.714622 -29.468618 18.000000 1.151753 3.852566
1097.449951 565.089898 167.930833 0.000000 0.000000 0.000000 0.000000 0.000000 0.000000 -119.219568 -0.744869 -11.755705 60.780432 -2.734220 -11.755705 -150.180642 -6.850079 28.531695 48.804955 -1.039161 -9.270510 -149.874178 -6.361034 -28.531695 2.713854 0.588102 4.045085
1114.140244 528.302071 144.217087 0.000000 0.000000 0.000000 0.000000 0.000000 0.000000 -142.671523 4.636767 -15.410265 37.328477 4.908241 -15.410265 -177.395681 -2.945303 27.144812 34.687329 -5.144616 -12.773379 161.894167 5.221351 -27.144812 -0.910956 0.140795 4.221640
1116.433640 479.728639 161.912212 0.000000 0.000000 0.000000 0.000000 0.000000 0.000000 -102.267481 -2.837097 -18.096541 77.732519 -16.614813 -18.096541 -163.695626 3.813371 25.329838 38.575767 -1.918002 -16.074804 -176.001122 -2.152591 -25.329838 0.706594 -0.141190 4.381533
1135.931282 466.493965 144.877196 0.000000 0.000000 0.000000 0.000000 0.000000 0.000000 -112.868406 -13.870918 -19.645745 67.131594 -0.125690 -19.645745 -159.517862 3.435643 23.115397 36.204678 0.545932 -19.122720 -154.426613 -5.710009 -23.115397 2.428729 0.522244 4.524135
1141.618767 467.420679 155.650955 0.000000 0.000000 0.000000 0.000000 0.000000 0.000000 -123.086385 12.828648 -19.960535 56.913615 -0.960008 -19.960535 -154.885724 -0.539691 20.536413 36.481623 -3.731914 -21.869059 -153.965441 -5.513793 -20.536413 2.446728 0.443832 4.648882
1150.647926 469.370956 147.122220 0.000000 0.000000 0.000000 0.000000 0.000000 0.000000 -43.953779 -26.753823 -19.021130 136.046221 -9.922245 -19.021130 -154.327268 -7.127739 17.633558 60.745168 -1.362262 -24.270510 -153.350642 -6.821728 -17.633558 2.386216 0.609889 4.755283
1151.529922 496.420240 145.175852 0.000000 0.000000 0.000000 0.000000 0.000000 0.000000 -116.362129 0.269584 -16.886559 63.637871 4.917484 -16.886559 -149.081043 3.891007 14.452610 35.941860 3.934337 -26.289200 -156.847177 0.218999 -14.452610 2.056513 -0.080345 4.842916
1148.402367 515.713574 161.502892 0.000000 0.000000 0.000000 0.000000 0.000000 0.000000 -118.252650 -10.332663 -13.690942 61.747350 5.948782 -13.690942 -138.082896 -2.028273 11.043737 -156.312677 -6.920452 -27.893295 21.649626 10.367741 -11.043737 2.962417 -0.119932 4.911436
1175.363617 533.368646 130.248228 0.000000 0.000000 0.000000 0.000000 0.000000 0.000000 -95.476638 17.013161 -9.635073 84.523362 -13.281542 -9.635073 -113.907461 -3.445725 7.460697 -155.995907 -7.748376 -29.057495 12.512064 8.662550 -7.460697 -16.748794 -0.866255 4.960574
1199.533310 485.991104 147.721373 0.000000 0.000000 0.000000 0.000000 0.000000 0.000000 -100.003195 -3.340119 -4.973798 79.996805 8.726536 -4.973798 -86.083188 -1.716999 3.759997 38.843754 0.534600 -29.763441 -106.539452 1.839963 -3.759997 6.197806 0.114585 4.990134
962.588190 444.938442 138.130662 0.000000 0.000000 0.000000 0.000000 0.000000 0.000000 39.579754 38.641108 -0.000000 180.000000 10.180801 -0.000000 36.680773 9.674242 0.000000 143.319227 2.719635 -30.000000 29.388385 0.317188 -0.000000 18.000000 0.031920 5.000000
1142.094727 445.716287 124.904923 0.000000 0.000000 0.000000 0.000000 0.000000 0.000000 -140.228454 -1.276719 4.973798 39.771546 23.487838 4.973798 -156.118008 -6.139580 -3.759997 3.479189 15.662415 -29.763441 -158.005660 -6.544763 3.759997 2.150019 0.502692 4.990134
1164.005928 424.847746 121.912263 0.000000 0.000000 0.000000 0.000000 0.000000 0.000000 -84.241076 18.301808 9.635073 95.758924 19.553395 9.635073 -156.181584 -5.984535 -7.460697 166.928360 8.142325 -29.057495 -154.947270 -6.487041 7.460697 2.644196 0.696584 4.960574
1124.208755 418.286655 113.163500 0.000000 0.000000 0.000000 0.000000 0.000000 0.000000 -117.427077 10.418642 13.690942 62.572923 0.497256 13.690942 -155.943063 -5.203220 -11.043737 14.023837 4.588774 -27.893295 -157.382674 -5.274675 11.043737 2.188130 0.503882 4.911436
962.990408 444.917226 115.173540 0.000000 0.000000 0.000000 0.000000 0.000000 0.000000 42.110883 -3.471205 16.886559 180.000000 -22.276365 16.886559 37.946959 -1.328424 -14.452610 142.053041 2.785619 -26.289200 29.293612 -6.532134 14.452610 18.000000 0.089024 4.842916
963.090170 444.911436 110.488340 0.000000 0.000000 0.000000 0.000000 0.000000 0.000000 42.659200 2.285502 19.021130 180.000000 17.065573 19.021130 38.119107 12.537712 -17.633558 141.880893 15.738376 -24.270510 29.068887 -7.283807 17.633558 18.000000 0.586599 4.755283
1186.646461 396.272757 91.779364 0.000000 0.000000 0.000000 0.000000 0.000000 0.000000 -72.847419 -18.985392 19.960535 107.152581 29.842474 19.960535 -156.703603 -4.927185 -20.536413 178.447294 13.929698 -21.869059 -157.212393 -4.999206 20.536413 1.964058 0.455115 4.648882
1313.051605 426.636125 105.136009 0.000000 0.000000 0.000000 0.000000 0.000000 0.000000 90.994869 -1.409150 19.645745 -89.005131 9.251953 19.645745 -160.515303 -4.418973 -23.115397 -153.248861 3.983641 -19.122720 -159.640525 -5.180266 23.115397 0.000000 0.000000 0.000000
1347.999344 420.772226 103.886320 0.000000 0.000000 0.000000 0.000000 0.000000 0.000000 90.154351 12.063337 18.096541 -89.845649 -8.596996 18.096541 -162.053401 -4.436350 -25.329838 -136.198880 -11.750769 -16.074804 -160.991694 -3.715415 25.329838 0.000000 0.000000 0.000000
1344.315948 421.031681 76.907159 0.000000 0.000000 0.000000 0.000000 0.000000 0.000000 69.757587 -1.713024 15.410265 -110.242413 -8.062089 15.410265 25.616746 6.979366 -27.144812 -157.821005 -3.963370 -12.773379 17.214985 3.011544 27.144812 -16.704706 -0.031205 4.221640
1350.307617 440.309436 79.576203 0.000000 0.000000 0.000000 0.000000 0.000000 0.000000 71.124018 -2.741646 11.755705 -108.875982 -4.053529 11.755705 42.739987 6.285045 -28.531695 -142.315466 3.627657 -9.270510 16.600926 -3.151694 28.531695 -16.660102 0.229859 4.045085
1357.685051 430.688889 71.089237 0.000000 0.000000 0.000000 0.000000 0.000000 0.000000 77.656077 7.148273 7.362491 -102.343923 -0.467908 7.362491 39.407151 -3.264297 -29.468618 -136.343173 3.273993 -5.621439 22.144452 -0.569563 29.468618 -16.305135 -0.226155 3.852566
1369.482193 445.909406 71.426321 0.000000 0.000000 0.000000 0.000000 0.000000 0.000000 88.051188 -4.118478 2.506665 -91.948812 0.627510 2.506665 -161.283973 -3.075018 -29.940802 -119.799169 -5.253618 -1.883716 -164.575400 -2.461631 29.940802 1.401013 0.333219 3.644843
963.875156 444.858159 65.279041 0.000000 0.000000 0.000000 0.000000 0.000000 0.000000 45.304844 38.515030 -2.506665 180.000000 -21.893925 -2.506665 37.252439 0.516981 -29.940802 142.747561 -13.475370 1.883716 25.146244 -2.617696 29.940802 18.000000 0.124402 3.422736
963.971479 444.850633 80.417567 0.000000 0.000000 0.000000 0.000000 0.000000 0.000000 45.383640 5.270478 -7.362491 180.000000 27.939647 -7.362491 36.882310 -28.795395 -29.468618 143.117690 -9.167566 5.621439 24.499789 4.703998 29.468618 18.000000 0.259788 3.187120
